<mxfile host="app.diagrams.net" modified="2023-10-30T13:21:35.849Z" agent="Mozilla/5.0 (Windows NT 10.0; Win64; x64) AppleWebKit/537.36 (KHTML, like Gecko) Chrome/118.0.0.0 Safari/537.36" version="22.0.8" etag="WuZt81SkCMVhunSTKmKh" type="github">
  <diagram name="Page-1" id="m_mLUeMLgV7CAfXz0cKy">
    <mxGraphModel>
      <root>
        <mxCell id="0" />
        <mxCell id="1" parent="0" />
      </root>
    </mxGraphModel>
  </diagram>
</mxfile>
